<svg xmlns="http://www.w3.org/2000/svg" width="40" height="30" viewBox="0 0 40 30">
  <defs>
    <style>
      .cls-1 {
        fill: #454546;
        fill-rule: evenodd;
      }
    </style>
  </defs>
  <path id="CODE" class="cls-1" d="M38.678,16.289l0,0-7.2,7.2,0,0a1.8,1.8,0,0,1-2.542-2.541l0,0,5.936-5.937L28.953,9.091h0A1.8,1.8,0,1,1,31.5,6.548l0,0,7.1,7.1A1.785,1.785,0,0,1,38.678,16.289ZM16.9,28.21a1.8,1.8,0,1,1-3.374-1.256L23.113,1.789a1.8,1.8,0,1,1,3.374,1.257ZM11.079,9.091L5.161,15.009,11.1,20.946l0,0a1.8,1.8,0,0,1-2.542,2.541l0,0-7.2-7.2,0,0a1.784,1.784,0,0,1,.084-2.648l7.1-7.1,0,0A1.8,1.8,0,1,1,11.077,9.09h0Z"/>
</svg>
